<svg width="1972" height="1461" xmlns="http://www.w3.org/2000/svg" xmlns:xlink="http://www.w3.org/1999/xlink" xml:space="preserve" overflow="hidden"><g transform="translate(-2198 -676)"><rect x="2205" y="1875.48" width="1464.52" height="254.521" fill="#FFFFFF"/><path d="M3669.52 1875.48 4163 1382 4163 1636.52 3669.52 2130Z" fill="#CDCDCD" fill-rule="evenodd"/><path d="M2205 1875.48 2698.48 1382 4163 1382 3669.52 1875.48Z" fill="#FFFFFF" fill-rule="evenodd"/><path d="M2205 1875.48 2698.48 1382 4163 1382 4163 1636.52 3669.52 2130 2205 2130ZM2205 1875.48 3669.52 1875.48 4163 1382M3669.52 1875.48 3669.52 2130" stroke="#172C51" stroke-width="13.75" stroke-miterlimit="8" fill="none" fill-rule="evenodd"/><path d="M0 0 495.192 493.94" stroke="#000000" stroke-width="2.29167" stroke-miterlimit="8" fill="none" fill-rule="evenodd" transform="matrix(-1 0 0 1 2800.19 1382)"/><path d="M0 0 495.192 493.94" stroke="#000000" stroke-width="2.29167" stroke-miterlimit="8" fill="none" fill-rule="evenodd" transform="matrix(-1 0 0 1 2903.19 1383)"/><path d="M0 0 495.192 493.94" stroke="#000000" stroke-width="2.29167" stroke-miterlimit="8" fill="none" fill-rule="evenodd" transform="matrix(-1 0 0 1 3010.19 1375)"/><path d="M0 0 495.192 493.94" stroke="#000000" stroke-width="2.29167" stroke-miterlimit="8" fill="none" fill-rule="evenodd" transform="matrix(-1 0 0 1 3114.19 1377)"/><path d="M0 0 495.192 493.94" stroke="#000000" stroke-width="2.29167" stroke-miterlimit="8" fill="none" fill-rule="evenodd" transform="matrix(-1 0 0 1 3211.19 1386)"/><path d="M0 0 495.192 493.94" stroke="#000000" stroke-width="2.29167" stroke-miterlimit="8" fill="none" fill-rule="evenodd" transform="matrix(-1 0 0 1 3314.19 1387)"/><path d="M0 0 495.192 493.94" stroke="#000000" stroke-width="2.29167" stroke-miterlimit="8" fill="none" fill-rule="evenodd" transform="matrix(-1 0 0 1 3422.19 1379)"/><path d="M0 0 495.192 493.94" stroke="#000000" stroke-width="2.29167" stroke-miterlimit="8" fill="none" fill-rule="evenodd" transform="matrix(-1 0 0 1 3525.19 1381)"/><path d="M0 0 495.192 493.94" stroke="#000000" stroke-width="2.29167" stroke-miterlimit="8" fill="none" fill-rule="evenodd" transform="matrix(-1 0 0 1 3636.19 1383)"/><path d="M0 0 495.192 493.94" stroke="#000000" stroke-width="2.29167" stroke-miterlimit="8" fill="none" fill-rule="evenodd" transform="matrix(-1 0 0 1 3739.19 1385)"/><path d="M0 0 495.192 493.94" stroke="#000000" stroke-width="2.29167" stroke-miterlimit="8" fill="none" fill-rule="evenodd" transform="matrix(-1 0 0 1 3847.19 1377)"/><path d="M0 0 495.192 493.94" stroke="#000000" stroke-width="2.29167" stroke-miterlimit="8" fill="none" fill-rule="evenodd" transform="matrix(-1 0 0 1 3950.19 1379)"/><path d="M0 0 495.192 493.94" stroke="#000000" stroke-width="2.29167" stroke-miterlimit="8" fill="none" fill-rule="evenodd" transform="matrix(-1 0 0 1 4055.19 1377)"/><path d="M0 0 1450.48 0.000360892" stroke="#000000" stroke-width="2.29167" stroke-miterlimit="8" fill="none" fill-rule="evenodd" transform="matrix(-1 0 0 1 3715.48 1823)"/><path d="M0 0 1450.48 0.000360892" stroke="#000000" stroke-width="2.29167" stroke-miterlimit="8" fill="none" fill-rule="evenodd" transform="matrix(-1 0 0 1 3767.48 1774)"/><path d="M0 0 1450.48 0.000360892" stroke="#000000" stroke-width="2.29167" stroke-miterlimit="8" fill="none" fill-rule="evenodd" transform="matrix(-1 0 0 1 3797.48 1731)"/><path d="M0 0 1450.48 0.000360892" stroke="#000000" stroke-width="2.29167" stroke-miterlimit="8" fill="none" fill-rule="evenodd" transform="matrix(-1 0 0 1 3856.48 1677)"/><path d="M0 0 1450.48 0.000360892" stroke="#000000" stroke-width="2.29167" stroke-miterlimit="8" fill="none" fill-rule="evenodd" transform="matrix(-1 0 0 1 3911.48 1623)"/><path d="M0 0 1450.48 0.000360892" stroke="#000000" stroke-width="2.29167" stroke-miterlimit="8" fill="none" fill-rule="evenodd" transform="matrix(-1 0 0 1 3953.48 1572)"/><path d="M0 0 1450.48 0.000360892" stroke="#000000" stroke-width="2.29167" stroke-miterlimit="8" fill="none" fill-rule="evenodd" transform="matrix(-1 0 0 1 4002.48 1527)"/><path d="M0 0 1450.48 0.000360892" stroke="#000000" stroke-width="2.29167" stroke-miterlimit="8" fill="none" fill-rule="evenodd" transform="matrix(-1 0 0 1 4053.48 1479)"/><path d="M0 0 1450.48 0.000360892" stroke="#000000" stroke-width="2.29167" stroke-miterlimit="8" fill="none" fill-rule="evenodd" transform="matrix(-1 0 0 1 4104.48 1432)"/><path d="M3075.5 891C3075.5 878.021 3105.94 867.5 3143.5 867.5 3181.06 867.5 3211.5 878.021 3211.5 891L3211.5 985C3211.5 997.979 3181.06 1008.5 3143.5 1008.5 3105.94 1008.5 3075.5 997.979 3075.5 985Z" fill="#877FBB" fill-rule="evenodd"/><path d="M3211.5 891C3211.5 903.979 3181.06 914.5 3143.5 914.5 3105.94 914.5 3075.5 903.979 3075.5 891" stroke="#000000" stroke-width="4.58333" stroke-miterlimit="8" fill="none" fill-rule="evenodd"/><path d="M3075.5 891C3075.5 878.021 3105.94 867.5 3143.5 867.5 3181.06 867.5 3211.5 878.021 3211.5 891L3211.5 985C3211.5 997.979 3181.06 1008.5 3143.5 1008.5 3105.94 1008.5 3075.5 997.979 3075.5 985Z" stroke="#000000" stroke-width="4.58333" stroke-miterlimit="8" fill="none" fill-rule="evenodd"/><rect x="2949.5" y="738.25" width="346.25" height="179.25" fill="#877FBB"/><path d="M3295.75 738.25 3355.5 678.5 3355.5 857.75 3295.75 917.5Z" fill="#6D6696" fill-rule="evenodd"/><path d="M2949.5 738.25 3009.25 678.5 3355.5 678.5 3295.75 738.25Z" fill="#9F98C8" fill-rule="evenodd"/><path d="M2949.5 738.25 3009.25 678.5 3355.5 678.5 3355.5 857.75 3295.75 917.5 2949.5 917.5ZM2949.5 738.25 3295.75 738.25 3355.5 678.5M3295.75 738.25 3295.75 917.5" stroke="#000000" stroke-width="4.58333" stroke-miterlimit="8" fill="none" fill-rule="evenodd"/><text fill="#FFFFFF" font-family="Avenir Next LT Pro Demi,Avenir Next LT Pro Demi_MSFontService,sans-serif" font-weight="600" font-size="83" transform="matrix(1 0 0 1 2991.81 857)">Source</text><path d="M3179 1624 3230.5 1571 3334 1572.46 3283.85 1622.54 3179 1624Z" fill-rule="evenodd"/><path d="M3225 1577 3276.84 1524 3381 1525.46 3330.52 1575.54 3225 1577Z" fill-rule="evenodd"/><path d="M3270 1529 3323.83 1476 3432 1477.46 3379.58 1527.54 3270 1529Z" fill-rule="evenodd"/><path d="M3319 1483 3372.83 1430 3481 1431.46 3428.58 1481.54 3319 1483Z" fill-rule="evenodd"/><path d="M3427 1484 3480.83 1431 3589 1432.46 3536.58 1482.54 3427 1484Z" fill-rule="evenodd"/><path d="M3075 1626 3126.84 1570 3231 1571.55 3180.52 1624.46 3075 1626Z" stroke="#BFBFBF" stroke-width="10.3125" stroke-miterlimit="8" fill-rule="evenodd"/><path d="M3143.5 1008.5 3155.74 1599.1" stroke="#BFBFBF" stroke-width="20.625" stroke-linecap="square" stroke-miterlimit="8" stroke-dasharray="61.875 20.625" fill="none" fill-rule="evenodd"/><path d="M3385 1452 3529.71 1452" stroke="#5CC8B1" stroke-width="13.75" stroke-miterlimit="8" fill="none" fill-rule="evenodd"/><path d="M0 0 127.86 140.373" stroke="#5CC8B1" stroke-width="13.75" stroke-miterlimit="8" fill="none" fill-rule="evenodd" transform="matrix(-1 0 0 1 3389.86 1450)"/><path d="M3121 1592 3265.71 1592" stroke="#5CC8B1" stroke-width="13.75" stroke-miterlimit="8" fill="none" fill-rule="evenodd"/></g></svg>