<?xml version="1.0" encoding="UTF-8" standalone="no"?>
<svg
   width="566.87891pt"
   height="566.87494pt"
   viewBox="0 0 566.8789 566.87493"
   version="1.1"
   id="svg4"
   sodipodi:docname="Logo.pdf"
   inkscape:export-filename="Logo.svg"
   inkscape:export-xdpi="96"
   inkscape:export-ydpi="96"
   xmlns:inkscape="http://www.inkscape.org/namespaces/inkscape"
   xmlns:sodipodi="http://sodipodi.sourceforge.net/DTD/sodipodi-0.dtd"
   xmlns="http://www.w3.org/2000/svg"
   xmlns:svg="http://www.w3.org/2000/svg">
  <sodipodi:namedview
     id="namedview4"
     pagecolor="#ffffff"
     bordercolor="#000000"
     borderopacity="0.25"
     inkscape:showpageshadow="2"
     inkscape:pageopacity="0.0"
     inkscape:pagecheckerboard="0"
     inkscape:deskcolor="#d1d1d1"
     inkscape:document-units="pt" />
  <defs
     id="defs1" />
  <path
     fill-rule="evenodd"
     fill="#877fbb"
     fill-opacity="1"
     d="M 106.78125,527.76172 293.35937,31.011719 190.37109,30.289063 1.171875,527.73047 Z m 0,0"
     id="path3" />
  <path
     fill-rule="evenodd"
     fill="#a8a9aa"
     fill-opacity="1"
     d="m 309.69922,126.98047 v 116.84765 h 50.23047 c 11.16015,0 21.85937,-0.96875 32.10937,-2.89843 10.25,-1.94141 19.48047,-5.23828 27.67969,-9.91016 8.20312,-4.66797 14.63281,-10.82031 19.30078,-18.44922 4.67188,-7.6289 7.01172,-17.26172 7.01172,-28.87109 0,-11.84766 -2.33984,-21.46875 -7.01172,-28.8711 -4.66797,-7.40625 -10.98828,-13.20703 -18.96094,-17.42968 -7.96875,-4.20703 -16.96875,-7 -26.98828,-8.36719 -10.01953,-1.37109 -20.39062,-2.05078 -31.08984,-2.05078 z m 1.91015,-96.691407 h 60.26954 c 27.10937,0 52.44921,2.671875 76.03125,8.03125 23.57031,5.351562 44.07031,14 61.5,25.960937 17.41796,11.957031 31.14843,27.617188 41.16796,46.98047 10.02344,19.35937 15.03125,43.16797 15.03125,71.41015 0,28.92969 -5.34765,53.35938 -16.05078,73.28907 -10.70703,19.92968 -25.16797,35.9375 -43.39843,48.00781 -18.21875,12.07031 -39.23047,20.90234 -63.03907,26.48047 -23.80078,5.58203 -48.46093,8.37109 -73.97265,8.37109 H 309.69922 V 525.71484 H 190.10937 V 351.07812 Z m 0,0"
     id="path4" />
</svg>
