<svg width="1058" height="720" xmlns="http://www.w3.org/2000/svg" xmlns:xlink="http://www.w3.org/1999/xlink" overflow="hidden"><defs><clipPath id="clip0"><rect x="0" y="0" width="1058" height="720"/></clipPath></defs><g clip-path="url(#clip0)"><rect x="0" y="0" width="1058" height="720.227" fill="#FFFFFF"/><rect x="349" y="23.0072" width="52" height="53.0167" stroke="#042433" stroke-width="1.99937" stroke-miterlimit="8" fill="#877FBB"/><rect x="349" y="76.0239" width="52" height="52.0164" stroke="#042433" stroke-width="1.99937" stroke-miterlimit="8" fill="none"/><rect x="401" y="23.0072" width="52" height="53.0167" stroke="#042433" stroke-width="1.99937" stroke-miterlimit="8" fill="none"/><rect x="401" y="76.0239" width="52" height="52.0164" stroke="#042433" stroke-width="1.99937" stroke-miterlimit="8" fill="none"/><path d="M365 50.0157C365 45.0436 369.253 41.0129 374.5 41.0129 379.747 41.0129 384 45.0436 384 50.0157 384 54.9879 379.747 59.0186 374.5 59.0186 369.253 59.0186 365 54.9879 365 50.0157Z" stroke="#042433" stroke-width="1.99937" stroke-miterlimit="8" fill="#FFFFFF" fill-rule="evenodd"/><path d="M402 128.04 489.307 215.7" stroke="#7F7F7F" stroke-width="1.99937" stroke-miterlimit="8" fill="none" fill-rule="evenodd"/><path d="M0 0 269.041 86.9864" stroke="#58C8B2" stroke-width="2.99906" stroke-miterlimit="8" fill="none" fill-rule="evenodd" transform="matrix(-1 0 0 1.00032 401.541 129.541)"/><path d="M0 0 85.5347 86.9866" stroke="#7F7F7F" stroke-width="1.99937" stroke-miterlimit="8" fill="none" fill-rule="evenodd" transform="matrix(-1 0 0 1.00032 401.535 128.04)"/><path d="M401.5 128.54 673.531 215.231" stroke="#58C8B2" stroke-width="2.99906" stroke-miterlimit="8" fill="none" fill-rule="evenodd"/><rect x="83" y="213.067" width="52" height="52.0164" stroke="#042433" stroke-width="1.99937" stroke-miterlimit="8" fill="#877FBB"/><rect x="83" y="265.083" width="52" height="53.0167" stroke="#042433" stroke-width="1.99937" stroke-miterlimit="8" fill="none"/><rect x="135" y="213.067" width="53" height="52.0164" stroke="#042433" stroke-width="1.99937" stroke-miterlimit="8" fill="#877FBB"/><rect x="135" y="265.083" width="53" height="53.0167" stroke="#042433" stroke-width="1.99937" stroke-miterlimit="8" fill="none"/><path d="M151 241.576C151 236.328 155.253 232.073 160.5 232.073 165.747 232.073 170 236.328 170 241.576 170 246.824 165.747 251.079 160.5 251.079 155.253 251.079 151 246.824 151 241.576Z" stroke="#042433" stroke-width="1.99937" stroke-miterlimit="8" fill="#FFFFFF" fill-rule="evenodd"/><rect x="263" y="215.068" width="53" height="52.0164" stroke="#042433" stroke-width="1.99937" stroke-miterlimit="8" fill="#877FBB"/><rect x="263" y="267.084" width="53" height="53.0167" stroke="#042433" stroke-width="1.99937" stroke-miterlimit="8" fill="none"/><rect x="316" y="215.068" width="52" height="52.0164" stroke="#042433" stroke-width="1.99937" stroke-miterlimit="8" fill="none"/><rect x="316" y="267.084" width="52" height="53.0167" stroke="#042433" stroke-width="1.99937" stroke-miterlimit="8" fill="none"/><path d="M280 241.576C280 236.328 284.253 232.073 289.5 232.073 294.747 232.073 299 236.328 299 241.576 299 246.824 294.747 251.079 289.5 251.079 284.253 251.079 280 246.824 280 241.576Z" stroke="#042433" stroke-width="1.99937" stroke-miterlimit="8" fill="#FFFFFF" fill-rule="evenodd"/><rect x="436" y="215.068" width="52" height="52.0164" stroke="#042433" stroke-width="1.99937" stroke-miterlimit="8" fill="#877FBB"/><rect x="436" y="267.084" width="52" height="53.0167" stroke="#042433" stroke-width="1.99937" stroke-miterlimit="8" fill="none"/><rect x="488" y="215.068" width="53.0001" height="52.0164" stroke="#042433" stroke-width="1.99937" stroke-miterlimit="8" fill="none"/><rect x="488" y="267.084" width="53.0001" height="53.0167" stroke="#042433" stroke-width="1.99937" stroke-miterlimit="8" fill="none"/><path d="M453 241.576C453 236.328 457.029 232.073 462 232.073 466.971 232.073 471 236.328 471 241.576 471 246.824 466.971 251.079 462 251.079 457.029 251.079 453 246.824 453 241.576Z" stroke="#042433" stroke-width="1.99937" stroke-miterlimit="8" fill="#FFFFFF" fill-rule="evenodd"/><rect x="621" y="215.068" width="52" height="53.0167" stroke="#042433" stroke-width="1.99937" stroke-miterlimit="8" fill="#877FBB"/><rect x="621" y="268.084" width="52" height="52.0164" stroke="#042433" stroke-width="1.99937" stroke-miterlimit="8" fill="#877FBB"/><rect x="673" y="215.068" width="53" height="53.0167" stroke="#042433" stroke-width="1.99937" stroke-miterlimit="8" fill="none"/><rect x="673" y="268.084" width="53" height="52.0164" stroke="#042433" stroke-width="1.99937" stroke-miterlimit="8" fill="none"/><path d="M637 293.592C637 288.344 641.253 284.089 646.5 284.089 651.747 284.089 656 288.344 656 293.592 656 298.841 651.747 303.095 646.5 303.095 641.253 303.095 637 298.841 637 293.592Z" stroke="#042433" stroke-width="1.99937" stroke-miterlimit="8" fill="#FFFFFF" fill-rule="evenodd"/><path d="M673 320.101 760.307 407.761" stroke="#7F7F7F" stroke-width="1.99937" stroke-miterlimit="8" fill="none" fill-rule="evenodd"/><path d="M0 0 85.5347 86.9866" stroke="#7F7F7F" stroke-width="1.99937" stroke-miterlimit="8" fill="none" fill-rule="evenodd" transform="matrix(-1 0 0 1.00032 673.535 320.101)"/><path d="M0 0 269.041 86.9864" stroke="#58C8B2" stroke-width="2.99906" stroke-miterlimit="8" fill="none" fill-rule="evenodd" transform="matrix(-1 0 0 1.00032 675.541 319.601)"/><path d="M942.796 408.651 673 319.1" stroke="#7F7F7F" stroke-width="1.99937" stroke-miterlimit="8" fill="none" fill-rule="evenodd"/><rect x="354" y="405.128" width="52" height="53.0167" stroke="#042433" stroke-width="1.99937" stroke-miterlimit="8" fill="#877FBB"/><rect x="354" y="458.144" width="52" height="52.0164" stroke="#042433" stroke-width="1.99937" stroke-miterlimit="8" fill="#877FBB"/><rect x="406" y="405.128" width="52" height="53.0167" stroke="#042433" stroke-width="1.99937" stroke-miterlimit="8" fill="none"/><rect x="406" y="458.144" width="52" height="52.0164" stroke="#042433" stroke-width="1.99937" stroke-miterlimit="8" fill="#877FBB"/><path d="M423 484.152C423 479.18 427.253 475.15 432.5 475.15 437.747 475.15 442 479.18 442 484.152 442 489.125 437.747 493.155 432.5 493.155 427.253 493.155 423 489.125 423 484.152Z" stroke="#042433" stroke-width="1.99937" stroke-miterlimit="8" fill="#FFFFFF" fill-rule="evenodd"/><rect x="535" y="408.129" width="53" height="52.0164" stroke="#042433" stroke-width="1.99937" stroke-miterlimit="8" fill="#877FBB"/><rect x="535" y="460.145" width="53" height="53.0167" stroke="#042433" stroke-width="1.99937" stroke-miterlimit="8" fill="#877FBB"/><rect x="588" y="408.129" width="52" height="52.0164" stroke="#042433" stroke-width="1.99937" stroke-miterlimit="8" fill="none"/><rect x="588" y="460.145" width="52" height="53.0167" stroke="#042433" stroke-width="1.99937" stroke-miterlimit="8" fill="none"/><path d="M552 486.153C552 481.181 556.253 477.15 561.5 477.15 566.747 477.15 571 481.181 571 486.153 571 491.125 566.747 495.156 561.5 495.156 556.253 495.156 552 491.125 552 486.153Z" stroke="#042433" stroke-width="1.99937" stroke-miterlimit="8" fill="#FFFFFF" fill-rule="evenodd"/><rect x="708" y="409.129" width="53" height="52.0164" stroke="#042433" stroke-width="1.99937" stroke-miterlimit="8" fill="#877FBB"/><rect x="708" y="461.145" width="53" height="53.0167" stroke="#042433" stroke-width="1.99937" stroke-miterlimit="8" fill="#877FBB"/><rect x="761" y="409.129" width="52" height="52.0164" stroke="#042433" stroke-width="1.99937" stroke-miterlimit="8" fill="none"/><rect x="761" y="461.145" width="52" height="53.0167" stroke="#042433" stroke-width="1.99937" stroke-miterlimit="8" fill="none"/><path d="M725 434.637C725 429.388 729.253 425.134 734.5 425.134 739.747 425.134 744 429.388 744 434.637 744 439.885 739.747 444.14 734.5 444.14 729.253 444.14 725 439.885 725 434.637Z" stroke="#042433" stroke-width="1.99937" stroke-miterlimit="8" fill="#FFFFFF" fill-rule="evenodd"/><rect x="890" y="409.129" width="53" height="52.0164" stroke="#042433" stroke-width="1.99937" stroke-miterlimit="8" fill="#877FBB"/><rect x="890" y="461.145" width="53" height="53.0167" stroke="#042433" stroke-width="1.99937" stroke-miterlimit="8" fill="#877FBB"/><rect x="943" y="409.129" width="52" height="52.0164" stroke="#042433" stroke-width="1.99937" stroke-miterlimit="8" fill="none"/><rect x="943" y="461.145" width="52" height="53.0167" stroke="#042433" stroke-width="1.99937" stroke-miterlimit="8" fill="none"/><path d="M907 486.653C907 481.405 911.253 477.15 916.5 477.15 921.747 477.15 926 481.405 926 486.653 926 491.902 921.747 496.156 916.5 496.156 911.253 496.156 907 491.902 907 486.653Z" stroke="#042433" stroke-width="1.99937" stroke-miterlimit="8" fill="#FFFFFF" fill-rule="evenodd"/><path d="M342 172.054C342 163.767 348.94 157.049 357.5 157.049 366.06 157.049 373 163.767 373 172.054 373 180.341 366.06 187.059 357.5 187.059 348.94 187.059 342 180.341 342 172.054Z" fill="#FFFFFF" fill-rule="evenodd"/><text fill="#7F7F7F" font-family="Cambria Math,Cambria Math_MSFontService,sans-serif" font-weight="400" font-size="27" transform="matrix(1 0 0 1.00032 346.797 182)">a</text><text fill="#7F7F7F" font-family="Cambria Math,Cambria Math_MSFontService,sans-serif" font-weight="400" font-size="14" transform="matrix(1 0 0 1.00032 359.792 186)">2</text><path d="M430 172.554C430 162.886 439.178 155.049 450.5 155.049 461.822 155.049 471 162.886 471 172.554 471 182.222 461.822 190.06 450.5 190.06 439.178 190.06 430 182.222 430 172.554Z" fill="#FFFFFF" fill-rule="evenodd"/><text fill="#7F7F7F" font-family="Cambria Math,Cambria Math_MSFontService,sans-serif" font-weight="400" font-size="27" transform="matrix(1 0 0 1.00032 440.466 183)">a</text><text fill="#7F7F7F" font-family="Cambria Math,Cambria Math_MSFontService,sans-serif" font-weight="400" font-size="14" transform="matrix(1 0 0 1.00032 453.462 187)">3</text><path d="M527 174.055C527 165.768 533.716 159.05 542 159.05 550.284 159.05 557 165.768 557 174.055 557 182.342 550.284 189.06 542 189.06 533.716 189.06 527 182.342 527 174.055Z" fill="#FFFFFF" fill-rule="evenodd"/><text fill="#58C8B2" font-family="Cambria Math,Cambria Math_MSFontService,sans-serif" font-weight="400" font-size="27" transform="matrix(1 0 0 1.00032 531.583 184)">a</text><text fill="#58C8B2" font-family="Cambria Math,Cambria Math_MSFontService,sans-serif" font-weight="400" font-size="14" transform="matrix(1 0 0 1.00032 544.579 188)">4</text><path d="M514 362.614C514 354.051 520.94 347.109 529.5 347.109 538.06 347.109 545 354.051 545 362.614 545 371.177 538.06 378.119 529.5 378.119 520.94 378.119 514 371.177 514 362.614Z" fill="#FFFFFF" fill-rule="evenodd"/><text fill="#58C8B2" font-family="Cambria Math,Cambria Math_MSFontService,sans-serif" font-weight="400" font-size="27" transform="matrix(1 0 0 1.00032 518.888 373)">a</text><text fill="#58C8B2" font-family="Cambria Math,Cambria Math_MSFontService,sans-serif" font-weight="400" font-size="14" transform="matrix(1 0 0 1.00032 531.884 377)">1</text><path d="M612 363.114C612 354.827 618.94 348.11 627.5 348.11 636.06 348.11 643 354.827 643 363.114 643 371.401 636.06 378.119 627.5 378.119 618.94 378.119 612 371.401 612 363.114Z" fill="#FFFFFF" fill-rule="evenodd"/><text fill="#7F7F7F" font-family="Cambria Math,Cambria Math_MSFontService,sans-serif" font-weight="400" font-size="27" transform="matrix(1 0 0 1.00032 616.963 374)">a</text><text fill="#7F7F7F" font-family="Cambria Math,Cambria Math_MSFontService,sans-serif" font-weight="400" font-size="14" transform="matrix(1 0 0 1.00032 629.959 378)">2</text><path d="M797 365.115C797 356.828 803.94 350.11 812.5 350.11 821.06 350.11 828 356.828 828 365.115 828 373.402 821.06 380.12 812.5 380.12 803.94 380.12 797 373.402 797 365.115Z" fill="#FFFFFF" fill-rule="evenodd"/><text fill="#7F7F7F" font-family="Cambria Math,Cambria Math_MSFontService,sans-serif" font-weight="400" font-size="27" transform="matrix(1 0 0 1.00032 801.749 375)">a</text><text fill="#7F7F7F" font-family="Cambria Math,Cambria Math_MSFontService,sans-serif" font-weight="400" font-size="14" transform="matrix(1 0 0 1.00032 814.745 379)">4</text><path d="M312 70.022C312 61.7352 318.94 55.0173 327.5 55.0173 336.06 55.0173 343 61.7352 343 70.022 343 78.3089 336.06 85.0268 327.5 85.0268 318.94 85.0268 312 78.3089 312 70.022Z" fill="#FFFFFF" fill-rule="evenodd"/><text font-family="Cambria Math,Cambria Math_MSFontService,sans-serif" font-weight="700" font-size="27" transform="matrix(1 0 0 1.00032 318.434 80)">s</text><text font-family="Cambria Math,Cambria Math_MSFontService,sans-serif" font-weight="700" font-size="14" transform="matrix(1 0 0 1.00032 329.764 84)">0</text><path d="M501 458.144C501 449.857 507.94 443.14 516.5 443.14 525.06 443.14 532 449.857 532 458.144 532 466.431 525.06 473.149 516.5 473.149 507.94 473.149 501 466.431 501 458.144Z" fill="#FFFFFF" fill-rule="evenodd"/><text fill="#877FBB" font-family="Cambria Math,Cambria Math_MSFontService,sans-serif" font-weight="700" font-size="27" transform="matrix(1 0 0 1.00032 507.283 468)">s</text><text fill="#877FBB" font-family="Cambria Math,Cambria Math_MSFontService,sans-serif" font-weight="700" font-size="14" transform="matrix(1 0 0 1.00032 518.612 472)">2</text><path d="M673 458.144C673 449.857 679.94 443.14 688.5 443.14 697.06 443.14 704 449.857 704 458.144 704 466.431 697.06 473.149 688.5 473.149 679.94 473.149 673 466.431 673 458.144Z" fill="#FFFFFF" fill-rule="evenodd"/><text fill="#877FBB" font-family="Cambria Math,Cambria Math_MSFontService,sans-serif" font-weight="700" font-size="27" transform="matrix(1 0 0 1.00032 679.371 468)">s</text><text fill="#877FBB" font-family="Cambria Math,Cambria Math_MSFontService,sans-serif" font-weight="700" font-size="14" transform="matrix(1 0 0 1.00032 690.701 472)">4</text><path d="M852 458.144C852 449.857 858.94 443.14 867.5 443.14 876.06 443.14 883 449.857 883 458.144 883 466.431 876.06 473.149 867.5 473.149 858.94 473.149 852 466.431 852 458.144Z" fill="#FFFFFF" fill-rule="evenodd"/><text fill="#877FBB" font-family="Cambria Math,Cambria Math_MSFontService,sans-serif" font-weight="700" font-size="27" transform="matrix(1 0 0 1.00032 857.98 468)">s</text><text fill="#877FBB" font-family="Cambria Math,Cambria Math_MSFontService,sans-serif" font-weight="700" font-size="14" transform="matrix(1 0 0 1.00032 869.31 472)">2</text><path d="M404.5 510.661 491.807 598.321" stroke="#58C8B2" stroke-width="2.99906" stroke-miterlimit="8" fill="none" fill-rule="evenodd"/><path d="M0 0 85.5347 86.9866" stroke="#7F7F7F" stroke-width="1.99937" stroke-miterlimit="8" fill="none" fill-rule="evenodd" transform="matrix(-1 0 0 1.00032 404.535 511.161)"/><path d="M0 0 269.041 86.9864" stroke="#7F7F7F" stroke-width="1.99937" stroke-miterlimit="8" fill="none" fill-rule="evenodd" transform="matrix(-1 0 0 1.00032 406.041 510.161)"/><path d="M673.796 599.711 404 510.161" stroke="#7F7F7F" stroke-width="1.99937" stroke-miterlimit="8" fill="none" fill-rule="evenodd"/><path d="M245 553.174C245 544.887 251.94 538.17 260.5 538.17 269.06 538.17 276 544.887 276 553.174 276 561.461 269.06 568.179 260.5 568.179 251.94 568.179 245 561.461 245 553.174Z" fill="#FFFFFF" fill-rule="evenodd"/><text fill="#7F7F7F" font-family="Cambria Math,Cambria Math_MSFontService,sans-serif" font-weight="400" font-size="27" transform="matrix(1 0 0 1.00032 250.004 563)">a</text><text fill="#7F7F7F" font-family="Cambria Math,Cambria Math_MSFontService,sans-serif" font-weight="400" font-size="14" transform="matrix(1 0 0 1.00032 263 567)">1</text><path d="M343 554.175C343 545.888 349.94 539.17 358.5 539.17 367.06 539.17 374 545.888 374 554.175 374 562.461 367.06 569.179 358.5 569.179 349.94 569.179 343 562.461 343 554.175Z" fill="#FFFFFF" fill-rule="evenodd"/><text fill="#7F7F7F" font-family="Cambria Math,Cambria Math_MSFontService,sans-serif" font-weight="400" font-size="27" transform="matrix(1 0 0 1.00032 348.08 564)">a</text><text fill="#7F7F7F" font-family="Cambria Math,Cambria Math_MSFontService,sans-serif" font-weight="400" font-size="14" transform="matrix(1 0 0 1.00032 361.076 568)">2</text><rect x="439" y="598.188" width="53" height="53.0167" stroke="#042433" stroke-width="1.99937" stroke-miterlimit="8" fill="#877FBB"/><rect x="439" y="651.205" width="53" height="52.0164" stroke="#042433" stroke-width="1.99937" stroke-miterlimit="8" fill="#877FBB"/><rect x="492" y="598.188" width="52.0001" height="53.0167" stroke="#042433" stroke-width="1.99937" stroke-miterlimit="8" fill="#877FBB"/><rect x="492" y="651.205" width="52.0001" height="52.0164" stroke="#042433" stroke-width="1.99937" stroke-miterlimit="8" fill="#877FBB"/><path d="M509 624.697C509 619.448 513.253 615.194 518.5 615.194 523.747 615.194 528 619.448 528 624.697 528 629.945 523.747 634.2 518.5 634.2 513.253 634.2 509 629.945 509 624.697Z" stroke="#042433" stroke-width="1.99937" stroke-miterlimit="8" fill="#FFFFFF" fill-rule="evenodd"/><path d="M45 649.204C45 640.918 51.9396 634.2 60.5 634.2 69.0604 634.2 76 640.918 76 649.204 76 657.491 69.0604 664.209 60.5 664.209 51.9396 664.209 45 657.491 45 649.204Z" fill="#FFFFFF" fill-rule="evenodd"/><text fill="#877FBB" font-family="Cambria Math,Cambria Math_MSFontService,sans-serif" font-weight="700" font-size="27" transform="matrix(1 0 0 1.00032 51.1807 659)">s</text><text fill="#877FBB" font-family="Cambria Math,Cambria Math_MSFontService,sans-serif" font-weight="700" font-size="14" transform="matrix(1 0 0 1.00032 62.5105 663)">3</text><path d="M703 367.116C703 357.724 712.178 350.11 723.5 350.11 734.822 350.11 744 357.724 744 367.116 744 376.507 734.822 384.121 723.5 384.121 712.178 384.121 703 376.507 703 367.116Z" fill="#FFFFFF" fill-rule="evenodd"/><text fill="#7F7F7F" font-family="Cambria Math,Cambria Math_MSFontService,sans-serif" font-weight="400" font-size="27" transform="matrix(1 0 0 1.00032 713.42 377)">a</text><text fill="#7F7F7F" font-family="Cambria Math,Cambria Math_MSFontService,sans-serif" font-weight="400" font-size="14" transform="matrix(1 0 0 1.00032 726.415 381)">3</text><rect x="84" y="598.188" width="52" height="52.0164" stroke="#042433" stroke-width="1.99937" stroke-miterlimit="8" fill="#877FBB"/><rect x="84" y="650.205" width="52" height="52.0164" stroke="#042433" stroke-width="1.99937" stroke-miterlimit="8" fill="#877FBB"/><rect x="136" y="598.188" width="53" height="52.0164" stroke="#042433" stroke-width="1.99937" stroke-miterlimit="8" fill="none"/><rect x="136" y="650.205" width="53" height="52.0164" stroke="#042433" stroke-width="1.99937" stroke-miterlimit="8" fill="#877FBB"/><path d="M153 676.713C153 671.465 157.253 667.21 162.5 667.21 167.747 667.21 172 671.465 172 676.713 172 681.962 167.747 686.216 162.5 686.216 157.253 686.216 153 681.962 153 676.713Z" stroke="#042433" stroke-width="1.99937" stroke-miterlimit="8" fill="#FFFFFF" fill-rule="evenodd"/><rect x="266" y="598.188" width="52" height="53.0167" stroke="#042433" stroke-width="1.99937" stroke-miterlimit="8" fill="#877FBB"/><rect x="266" y="651.205" width="52" height="52.0164" stroke="#042433" stroke-width="1.99937" stroke-miterlimit="8" fill="#877FBB"/><rect x="318" y="598.188" width="53" height="53.0167" stroke="#042433" stroke-width="1.99937" stroke-miterlimit="8" fill="none"/><rect x="318" y="651.205" width="53" height="52.0164" stroke="#042433" stroke-width="1.99937" stroke-miterlimit="8" fill="#877FBB"/><path d="M284 677.714C284 672.465 288.253 668.211 293.5 668.211 298.747 668.211 303 672.465 303 677.714 303 682.962 298.747 687.216 293.5 687.216 288.253 687.216 284 682.962 284 677.714Z" stroke="#042433" stroke-width="1.99937" stroke-miterlimit="8" fill="#FFFFFF" fill-rule="evenodd"/><rect x="623" y="597.188" width="52" height="52.0164" stroke="#042433" stroke-width="1.99937" stroke-miterlimit="8" fill="#877FBB"/><rect x="623" y="649.205" width="52" height="53.0167" stroke="#042433" stroke-width="1.99937" stroke-miterlimit="8" fill="#877FBB"/><rect x="675" y="597.188" width="53" height="52.0164" stroke="#042433" stroke-width="1.99937" stroke-miterlimit="8" fill="none"/><rect x="675" y="649.205" width="53" height="53.0167" stroke="#042433" stroke-width="1.99937" stroke-miterlimit="8" fill="#877FBB"/><path d="M692 675.713C692 670.464 696.253 666.21 701.5 666.21 706.747 666.21 711 670.464 711 675.713 711 680.961 706.747 685.216 701.5 685.216 696.253 685.216 692 680.961 692 675.713Z" stroke="#042433" stroke-width="1.99937" stroke-miterlimit="8" fill="#FFFFFF" fill-rule="evenodd"/><path d="M230 652.205C230 643.919 236.94 637.201 245.5 637.201 254.06 637.201 261 643.919 261 652.205 261 660.492 254.06 667.21 245.5 667.21 236.94 667.21 230 660.492 230 652.205Z" fill="#FFFFFF" fill-rule="evenodd"/><text fill="#877FBB" font-family="Cambria Math,Cambria Math_MSFontService,sans-serif" font-weight="700" font-size="27" transform="matrix(1 0 0 1.00032 235.963 662)">s</text><text fill="#877FBB" font-family="Cambria Math,Cambria Math_MSFontService,sans-serif" font-weight="700" font-size="14" transform="matrix(1 0 0 1.00032 247.293 666)">5</text><path d="M404 653.206C404 644.919 410.94 638.201 419.5 638.201 428.06 638.201 435 644.919 435 653.206 435 661.493 428.06 668.211 419.5 668.211 410.94 668.211 404 661.493 404 653.206Z" fill="#FFFFFF" fill-rule="evenodd"/><text fill="#877FBB" font-family="Cambria Math,Cambria Math_MSFontService,sans-serif" font-weight="700" font-size="27" transform="matrix(1 0 0 1.00032 410.18 663)">s</text><text fill="#877FBB" font-family="Cambria Math,Cambria Math_MSFontService,sans-serif" font-weight="700" font-size="14" transform="matrix(1 0 0 1.00032 421.51 667)">6</text><path d="M587 652.205C587 643.919 593.716 637.201 602 637.201 610.284 637.201 617 643.919 617 652.205 617 660.492 610.284 667.21 602 667.21 593.716 667.21 587 660.492 587 652.205Z" fill="#FFFFFF" fill-rule="evenodd"/><text fill="#877FBB" font-family="Cambria Math,Cambria Math_MSFontService,sans-serif" font-weight="700" font-size="27" transform="matrix(1 0 0 1.00032 592.507 663)">s</text><text fill="#877FBB" font-family="Cambria Math,Cambria Math_MSFontService,sans-serif" font-weight="700" font-size="14" transform="matrix(1 0 0 1.00032 603.836 667)">3</text><path d="M436 555.175C436 546.888 442.94 540.17 451.5 540.17 460.06 540.17 467 546.888 467 555.175 467 563.462 460.06 570.18 451.5 570.18 442.94 570.18 436 563.462 436 555.175Z" fill="#FFFFFF" fill-rule="evenodd"/><text fill="#58C8B2" font-family="Cambria Math,Cambria Math_MSFontService,sans-serif" font-weight="400" font-size="27" transform="matrix(1 0 0 1.00032 440.679 566)">a</text><text fill="#58C8B2" font-family="Cambria Math,Cambria Math_MSFontService,sans-serif" font-weight="400" font-size="14" transform="matrix(1 0 0 1.00032 453.675 570)">3</text><path d="M528 555.175C528 546.888 534.94 540.17 543.5 540.17 552.06 540.17 559 546.888 559 555.175 559 563.462 552.06 570.18 543.5 570.18 534.94 570.18 528 563.462 528 555.175Z" fill="#FFFFFF" fill-rule="evenodd"/><text fill="#7F7F7F" font-family="Cambria Math,Cambria Math_MSFontService,sans-serif" font-weight="400" font-size="27" transform="matrix(1 0 0 1.00032 532.866 566)">a</text><text fill="#7F7F7F" font-family="Cambria Math,Cambria Math_MSFontService,sans-serif" font-weight="400" font-size="14" transform="matrix(1 0 0 1.00032 545.862 570)">4</text><path d="M244 171.554C244 162.991 250.94 156.049 259.5 156.049 268.06 156.049 275 162.991 275 171.554 275 180.117 268.06 187.059 259.5 187.059 250.94 187.059 244 180.117 244 171.554Z" fill="#FFFFFF" fill-rule="evenodd"/><text fill="#58C8B2" font-family="Cambria Math,Cambria Math_MSFontService,sans-serif" font-weight="400" font-size="27" transform="matrix(1 0 0 1.00032 248.721 182)">a</text><text fill="#58C8B2" font-family="Cambria Math,Cambria Math_MSFontService,sans-serif" font-weight="400" font-size="14" transform="matrix(1 0 0 1.00032 261.717 186)">1</text><path d="M312 70.022C312 61.7352 318.94 55.0173 327.5 55.0173 336.06 55.0173 343 61.7352 343 70.022 343 78.3089 336.06 85.0268 327.5 85.0268 318.94 85.0268 312 78.3089 312 70.022Z" fill="#FFFFFF" fill-rule="evenodd"/><text fill="#877FBB" font-family="Cambria Math,Cambria Math_MSFontService,sans-serif" font-weight="700" font-size="27" transform="matrix(1 0 0 1.00032 318.434 80)">s</text><text fill="#877FBB" font-family="Cambria Math,Cambria Math_MSFontService,sans-serif" font-weight="700" font-size="14" transform="matrix(1 0 0 1.00032 329.764 84)">0</text><path d="M45 266.084C45 257.797 51.9396 251.079 60.5 251.079 69.0604 251.079 76 257.797 76 266.084 76 274.371 69.0604 281.089 60.5 281.089 51.9396 281.089 45 274.371 45 266.084Z" fill="#FFFFFF" fill-rule="evenodd"/><text fill="#877FBB" font-family="Cambria Math,Cambria Math_MSFontService,sans-serif" font-weight="700" font-size="27" transform="matrix(1 0 0 1.00032 51.1807 276)">s</text><text fill="#877FBB" font-family="Cambria Math,Cambria Math_MSFontService,sans-serif" font-weight="700" font-size="14" transform="matrix(1 0 0 1.00032 62.5105 280)">1</text><path d="M230 266.084C230 257.797 236.94 251.079 245.5 251.079 254.06 251.079 261 257.797 261 266.084 261 274.371 254.06 281.089 245.5 281.089 236.94 281.089 230 274.371 230 266.084Z" fill="#FFFFFF" fill-rule="evenodd"/><text fill="#877FBB" font-family="Cambria Math,Cambria Math_MSFontService,sans-serif" font-weight="700" font-size="27" transform="matrix(1 0 0 1.00032 235.963 276)">s</text><text fill="#877FBB" font-family="Cambria Math,Cambria Math_MSFontService,sans-serif" font-weight="700" font-size="14" transform="matrix(1 0 0 1.00032 247.293 280)">0</text><path d="M588 264.083C588 255.796 594.94 249.078 603.5 249.078 612.06 249.078 619 255.796 619 264.083 619 272.37 612.06 279.088 603.5 279.088 594.94 279.088 588 272.37 588 264.083Z" fill="#FFFFFF" fill-rule="evenodd"/><text fill="#877FBB" font-family="Cambria Math,Cambria Math_MSFontService,sans-serif" font-weight="700" font-size="27" transform="matrix(1 0 0 1.00032 593.529 274)">s</text><text fill="#877FBB" font-family="Cambria Math,Cambria Math_MSFontService,sans-serif" font-weight="700" font-size="14" transform="matrix(1 0 0 1.00032 604.859 278)">2</text><path d="M401 266.084C401 257.797 407.94 251.079 416.5 251.079 425.06 251.079 432 257.797 432 266.084 432 274.371 425.06 281.089 416.5 281.089 407.94 281.089 401 274.371 401 266.084Z" fill="#FFFFFF" fill-rule="evenodd"/><text fill="#877FBB" font-family="Cambria Math,Cambria Math_MSFontService,sans-serif" font-weight="700" font-size="27" transform="matrix(1 0 0 1.00032 407.032 277)">s</text><text fill="#877FBB" font-family="Cambria Math,Cambria Math_MSFontService,sans-serif" font-weight="700" font-size="14" transform="matrix(1 0 0 1.00032 418.362 281)">0</text><path d="M320 458.144C320 449.857 326.94 443.14 335.5 443.14 344.06 443.14 351 449.857 351 458.144 351 466.431 344.06 473.149 335.5 473.149 326.94 473.149 320 466.431 320 458.144Z" fill="#FFFFFF" fill-rule="evenodd"/><text fill="#877FBB" font-family="Cambria Math,Cambria Math_MSFontService,sans-serif" font-weight="700" font-size="27" transform="matrix(1 0 0 1.00032 325.782 468)">s</text><text fill="#877FBB" font-family="Cambria Math,Cambria Math_MSFontService,sans-serif" font-weight="700" font-size="14" transform="matrix(1 0 0 1.00032 337.112 472)">3</text></g></svg>